# Blender v3.0.1 OBJ File: 'Button2c.blend'
# www.blender.org
mtllib Button2c.mtl
o Button_04_Cylinder.003
v -0.022030 -0.064852 0.016473
v -0.022652 0.064261 0.018295
v 0.023118 -0.064631 0.016217
v 0.022496 0.064483 0.018038
v 0.000401 -0.064742 0.016346
v -0.000221 0.064371 0.018168
v -0.022229 -0.064366 -0.018039
v -0.022851 0.064747 -0.016218
v 0.000202 -0.064256 -0.018167
v 0.022919 -0.064145 -0.018296
v -0.000420 0.064857 -0.016345
v 0.022297 0.064968 -0.016474
vt 0.497554 0.147307
vt 0.496866 0.278746
vt 0.499772 0.288769
vt 0.500460 0.157330
vt 0.494611 0.137157
vt 0.493923 0.268595
vt 0.503366 0.163311
vt 0.500460 0.173334
vt 0.501148 0.304773
vt 0.504054 0.294750
vt 0.506310 0.153161
vt 0.506997 0.284599
vt 0.497554 0.294750
vt 0.500460 0.304773
vt 0.511579 0.137157
vt 0.506997 0.153157
vt 0.511579 0.268597
vt 0.504054 0.147307
vt 0.506997 0.137157
vt 0.501148 0.157330
vt 0.494611 0.284599
vt 0.511579 0.268597
vt 0.516161 0.284597
vt 0.516161 0.153157
vt 0.511579 0.137157
vn 0.0074 -0.7170 0.6970
vn 0.0006 0.6970 0.7170
vn -0.5768 0.5663 0.5887
vn -0.5712 -0.5882 0.5724
vn 0.5834 -0.5826 0.5658
vn 0.5779 0.5720 0.5821
vn -0.0006 -0.6970 -0.7170
vn -0.5779 -0.5720 -0.5821
vn -0.5834 0.5826 -0.5658
vn -0.0074 0.7170 -0.6970
vn 0.5768 -0.5663 -0.5887
vn 0.5712 0.5882 -0.5724
usemtl None
s 1
f 5/1/1 6/2/2 2/3/3 1/4/4
f 3/5/5 4/6/6 6/2/2 5/1/1
f 9/7/7 7/8/8 8/9/9 11/10/10
f 10/11/11 9/7/7 11/10/10 12/12/12
f 6/2/2 11/13/10 8/14/9 2/3/3
f 3/15/5 10/16/11 12/12/12 4/17/6
f 5/18/1 9/7/7 10/11/11 3/19/5
f 1/20/4 7/8/8 9/7/7 5/18/1
f 4/6/6 12/21/12 11/13/10 6/2/2
f 2/22/3 8/23/9 7/24/8 1/25/4
