# Blender v3.0.1 OBJ File: 'SmartWatchDial.blend'
# www.blender.org
mtllib SmartWatchDial.mtl
o Apple_Watch_Button_Cylinder.003
v -0.029470 -0.000000 -0.078622
v 0.029470 -0.000000 -0.078622
v -0.029470 -0.055594 -0.055594
v 0.029470 -0.055594 -0.055594
v -0.029470 -0.078622 0.000000
v 0.029470 -0.078622 0.000000
v -0.029470 -0.055594 0.055594
v 0.029470 -0.055594 0.055594
v -0.029470 0.000000 0.078622
v 0.029470 0.000000 0.078622
v -0.029470 0.055594 0.055594
v 0.029470 0.055594 0.055594
v -0.029470 0.078622 -0.000000
v 0.029470 0.078622 -0.000000
v -0.029470 0.055594 -0.055594
v 0.029470 0.055594 -0.055594
v 0.000000 0.000000 -0.089381
v 0.000000 -0.063202 -0.063202
v 0.000000 -0.089381 0.000000
v 0.000000 -0.063202 0.063202
v -0.000000 0.000000 0.089381
v -0.000000 0.063202 0.063202
v -0.000000 0.089381 -0.000000
v -0.000000 0.063202 -0.063202
v 0.023694 -0.047938 -0.047938
v 0.023694 -0.000000 -0.067795
v 0.023694 -0.067795 0.000000
v 0.023694 -0.047938 0.047938
v 0.023694 0.000000 0.067795
v 0.023694 0.047938 0.047938
v 0.023694 0.067795 -0.000000
v 0.023694 0.047938 -0.047938
v 0.023694 -0.055594 -0.055594
v 0.023694 -0.000000 -0.078622
v 0.023694 -0.078622 0.000000
v 0.023694 -0.055594 0.055594
v 0.023694 0.000000 0.078622
v 0.023694 0.055594 0.055594
v 0.023694 0.078622 -0.000000
v 0.023694 0.055594 -0.055594
v 0.027075 -0.047938 -0.047938
v 0.027075 -0.000000 -0.067795
v 0.027075 -0.067795 0.000000
v 0.027075 -0.047938 0.047938
v 0.027075 0.000000 0.067795
v 0.027075 0.047938 0.047938
v 0.027075 0.067795 -0.000000
v 0.027075 0.047938 -0.047938
vt 0.312715 0.910117
vt 0.312715 0.922327
vt 0.306610 0.922327
vt 0.306610 0.910117
vt 0.300505 0.922327
vt 0.300505 0.910117
vt 0.294400 0.922326
vt 0.294400 0.910116
vt 0.288295 0.922326
vt 0.288295 0.910116
vt 0.282190 0.922326
vt 0.282191 0.910116
vt 0.276085 0.922326
vt 0.276085 0.910116
vt 0.306610 0.922327
vt 0.300505 0.922327
vt 0.269980 0.922325
vt 0.269981 0.910115
vt 0.263875 0.922325
vt 0.263876 0.910115
vt 0.300506 0.897418
vt 0.308794 0.893986
vt 0.312228 0.885697
vt 0.308795 0.877409
vt 0.300507 0.873975
vt 0.292219 0.877408
vt 0.288785 0.885696
vt 0.292218 0.893985
vt 0.269981 0.897905
vt 0.263876 0.897905
vt 0.276086 0.897906
vt 0.282191 0.897906
vt 0.288296 0.897906
vt 0.294401 0.897907
vt 0.300506 0.897907
vt 0.306611 0.897907
vt 0.312716 0.897907
vt 0.268939 0.892842
vt 0.265979 0.885695
vt 0.265979 0.885695
vt 0.268939 0.892842
vt 0.288295 0.922326
vt 0.282190 0.922326
vt 0.269980 0.922325
vt 0.263875 0.922325
vt 0.312715 0.922327
vt 0.294400 0.922326
vt 0.276085 0.922326
vt 0.276086 0.895803
vt 0.283233 0.892843
vt 0.284375 0.893984
vt 0.276086 0.897417
vt 0.286194 0.885696
vt 0.287808 0.885696
vt 0.283234 0.878549
vt 0.284375 0.877408
vt 0.276087 0.875588
vt 0.276087 0.873974
vt 0.268940 0.878548
vt 0.267799 0.877407
vt 0.264365 0.885695
vt 0.267798 0.893984
vt 0.283233 0.892843
vt 0.276086 0.895803
vt 0.268940 0.878548
vt 0.276087 0.875588
vt 0.283234 0.878549
vt 0.286194 0.885696
vn 0.0000 0.0000 -1.0000
vn 0.9974 0.0000 -0.0717
vn 0.9974 -0.0507 -0.0507
vn 0.0000 -0.7071 -0.7071
vn 0.9974 -0.0717 0.0000
vn 0.0000 -1.0000 0.0000
vn 0.9974 -0.0507 0.0507
vn 0.0000 -0.7071 0.7071
vn 0.9974 0.0000 0.0717
vn 0.0000 0.0000 1.0000
vn 0.9974 0.0507 0.0507
vn 0.0000 0.7071 0.7071
vn 0.9974 0.0717 0.0000
vn 0.0000 1.0000 0.0000
vn 0.6302 0.5490 0.5490
vn 0.6302 0.7764 0.0000
vn 0.9974 0.0507 -0.0507
vn 0.0000 0.7071 -0.7071
vn -0.7562 0.0000 -0.6543
vn -0.7562 -0.4627 -0.4627
vn -0.7562 -0.6543 0.0000
vn -0.7562 -0.4627 0.4627
vn -0.7562 0.0000 0.6543
vn -0.7562 0.4627 0.4627
vn -0.7562 0.6543 0.0000
vn -0.7562 0.4627 -0.4627
vn 0.8042 0.4203 -0.4203
vn 0.8042 0.5943 0.0000
vn 0.6302 0.5490 -0.5490
vn 0.6302 0.0000 -0.7764
vn 0.6302 -0.5490 -0.5490
vn 0.6302 -0.5490 0.5490
vn 0.6302 0.0000 0.7764
vn 0.6302 -0.7764 0.0000
vn 0.8042 0.0000 -0.5943
vn 0.8042 -0.4203 -0.4203
vn 0.8042 -0.5943 0.0000
vn 0.8042 -0.4203 0.4203
vn 0.8042 0.0000 0.5943
vn 0.8042 0.4203 0.4203
usemtl Material
s 1
f 17/1/1 2/2/2 4/3/3 18/4/4
f 18/4/4 4/3/3 6/5/5 19/6/6
f 19/6/6 6/5/5 8/7/7 20/8/8
f 20/8/8 8/7/7 10/9/9 21/10/10
f 21/10/10 10/9/9 12/11/11 22/12/12
f 22/12/12 12/11/11 14/13/13 23/14/14
f 6/5/5 4/3/3 33/15/15 35/16/16
f 23/14/14 14/13/13 16/17/17 24/18/18
f 24/18/18 16/17/17 2/19/2 17/20/1
f 1/21/19 3/22/20 5/23/21 7/24/22 9/25/23 11/26/24 13/27/25 15/28/26
f 15/29/26 24/18/18 17/20/1 1/30/19
f 13/31/25 23/14/14 24/18/18 15/29/26
f 11/32/24 22/12/12 23/14/14 13/31/25
f 9/33/23 21/10/10 22/12/12 11/32/24
f 7/34/22 20/8/8 21/10/10 9/33/23
f 5/35/21 19/6/6 20/8/8 7/34/22
f 3/36/20 18/4/4 19/6/6 5/35/21
f 1/37/19 17/1/1 18/4/4 3/36/20
f 32/38/27 31/39/28 47/40/16 48/41/29
f 12/11/11 10/9/9 37/42/30 38/43/31
f 2/19/2 16/17/17 40/44/32 34/45/33
f 4/3/3 2/2/2 34/46/33 33/15/15
f 8/7/7 6/5/5 35/16/16 36/47/29
f 14/13/13 12/11/11 38/43/31 39/48/34
f 10/9/9 8/7/7 36/47/29 37/42/30
f 16/17/17 14/13/13 39/48/34 40/44/32
f 26/49/35 25/50/36 33/51/15 34/52/33
f 25/50/36 27/53/37 35/54/16 33/51/15
f 27/53/37 28/55/38 36/56/29 35/54/16
f 28/55/38 29/57/39 37/58/30 36/56/29
f 29/57/39 30/59/40 38/60/31 37/58/30
f 30/59/40 31/39/28 39/61/34 38/60/31
f 31/39/28 32/38/27 40/62/32 39/61/34
f 32/38/27 26/49/35 34/52/33 40/62/32
f 41/63/31 42/64/30 48/41/29 47/40/16 46/65/15 45/66/33 44/67/32 43/68/34
f 30/59/40 29/57/39 45/66/33 46/65/15
f 28/55/38 27/53/37 43/68/34 44/67/32
f 25/50/36 26/49/35 42/64/30 41/63/31
f 26/49/35 32/38/27 48/41/29 42/64/30
f 31/39/28 30/59/40 46/65/15 47/40/16
f 29/57/39 28/55/38 44/67/32 45/66/33
f 27/53/37 25/50/36 41/63/31 43/68/34
